<?xml version="1.0" encoding="utf-8"?>
<!-- Generator: Adobe Illustrator 18.0.0, SVG Export Plug-In . SVG Version: 6.00 Build 0)  -->
<!DOCTYPE svg PUBLIC "-//W3C//DTD SVG 1.1//EN" "http://www.w3.org/Graphics/SVG/1.1/DTD/svg11.dtd">
<svg version="1.1" id="Ebene_1" xmlns="http://www.w3.org/2000/svg" xmlns:xlink="http://www.w3.org/1999/xlink" x="0px" y="0px"
	 viewBox="0 0 690 48.3" enable-background="new 0 0 690 48.3" xml:space="preserve">
<g>
	<path fill="#1A171B" d="M51.3,25.6L51.3,25.6c-0.5,1.9-0.8,2.9-1.1,3.5c-0.3,0.5-0.6,0.6-1.2,0.6h-2.6v-5.5h1.1
		c0.4,0,0.6,0.1,0.8,0.5c0.2,0.4,0.4,0.9,0.5,1.9l0,0.1h0.5v-5.4h-0.5l0,0.1c-0.2,0.9-0.3,1.5-0.5,1.9c-0.2,0.3-0.5,0.5-0.8,0.5
		h-1.1v-5.1h3c0.4,0,0.6,0,0.8,0.5c0.3,0.4,0.5,1.3,0.9,3l0,0.1h0.5v-4.1h-8v0.6h0.9v11.2h-0.9v0.6h8.2v-4.7H51.3L51.3,25.6z"/>
	<path fill="#1A171B" d="M55.9,18.5h1.3c1.6,0,2.1,1.2,2.1,2.4c0,1.7-0.8,2.6-2.6,2.7h-0.8V18.5L55.9,18.5z M61.5,29.7L58,24.1
		c2.2-0.2,3.3-1.4,3.3-3.1c0-0.8-0.2-1.5-0.8-2.1c-0.6-0.6-1.5-0.9-2.8-0.9h-4.6v0.6H54v11.2h-0.9v0.6h4v-0.6h-1.2v-5.5l3.8,6h2.6
		v-0.6H61.5L61.5,29.7z"/>
	<polygon fill="#1A171B" points="68.9,17.9 68.9,18.5 70.1,18.5 70.1,26.5 65.7,17.9 62.5,17.9 62.5,18.5 63.6,18.5 63.6,29.7 
		62.5,29.7 62.5,30.3 65.5,30.3 65.5,29.7 64.2,29.7 64.2,19.1 70,30.3 70.7,30.3 70.7,18.5 71.7,18.5 71.7,17.9 68.9,17.9 	"/>
	<path fill="#1A171B" d="M80.2,25.6L80.2,25.6c-0.5,1.9-0.8,2.9-1.1,3.5c-0.3,0.5-0.6,0.6-1.2,0.6h-2.6v-5.5h1.1
		c0.4,0,0.6,0.1,0.8,0.5c0.2,0.4,0.4,0.9,0.5,1.9l0,0.1h0.5v-5.4h-0.5l0,0.1c-0.2,0.9-0.3,1.5-0.5,1.9c-0.2,0.3-0.5,0.5-0.8,0.5
		h-1.1v-5.1l3,0c0.4,0,0.6,0,0.8,0.5c0.3,0.4,0.5,1.3,0.9,3l0,0.1h0.5v-4.1h-8v0.6h0.9v11.2h-0.9v0.6h8.2v-4.7H80.2L80.2,25.6z"/>
	<path fill="#1A171B" d="M88.3,21c0,1.7-0.8,2.6-2.6,2.7h-0.8v-5.1h1.3C87.8,18.5,88.3,19.8,88.3,21 M90.5,29.7l-3.6-5.6
		c2.2-0.2,3.3-1.4,3.3-3.1c0-0.8-0.2-1.5-0.8-2.1c-0.6-0.6-1.5-0.9-2.8-0.9H82v0.6h0.9v11.2H82v0.6h4v-0.6h-1.2v-5.5l3.8,6h2.6v-0.6
		H90.5L90.5,29.7z"/>
	<path fill="#1A171B" d="M118.4,17.9v4h0.5l0-0.1c0.3-1.6,0.5-2.5,0.7-2.9c0.2-0.4,0.3-0.4,0.7-0.4h0.9v11.2h-1.2v0.6h4.2v-0.6h-1.2
		V18.5h0.9c0.3,0,0.5,0,0.7,0.4c0.2,0.4,0.4,1.3,0.7,2.9l0,0.1h0.5v-4H118.4L118.4,17.9z M113.9,18.5h0.9v11.2h-0.9v0.6h3.7v-0.6
		h-0.9V18.5h0.9v-0.6h-3.7V18.5L113.9,18.5z M112.1,25.7c-0.5,1.8-0.8,2.8-1.1,3.4c-0.3,0.5-0.6,0.6-1.2,0.6h-2.6v-5.5h1.1
		c0.4,0,0.6,0.1,0.8,0.5c0.2,0.3,0.4,0.9,0.5,1.9l0,0.1h0.5v-5.4h-0.5l0,0.1c-0.2,0.9-0.3,1.5-0.5,1.9c-0.2,0.3-0.5,0.5-0.8,0.5
		h-1.1v-5.1h3c0.4,0,0.6,0,0.8,0.5c0.3,0.4,0.5,1.3,0.9,3l0,0.1h0.5v-4.1h-8v0.6h0.9v11.2h-0.9v0.6h8.2v-4.7L112.1,25.7L112.1,25.7
		L112.1,25.7z"/>
	<path fill="#1A171B" d="M150.8,24.8v0.6h1.6v3.2c0,0.7-0.6,1.4-1.6,1.4c-0.9,0-1.5-0.3-2-1.1c-0.4-0.9-0.7-2.3-0.7-4.7
		c0-2.1,0.2-3.6,0.7-4.5c0.5-0.9,1.1-1.3,2.1-1.3c0.7,0,1.1,0.3,1.5,0.9c0.4,0.6,0.7,1.6,1,2.8l0,0.1h0.5v-3.6l-0.1,0
		c-1-0.5-1.8-0.7-2.8-0.7c-1.5,0-2.8,0.7-3.7,1.8c-0.9,1.1-1.4,2.7-1.4,4.6c0,2.3,0.5,3.9,1.4,4.9c0.9,1,2.1,1.5,3.4,1.5
		c1.4,0,2.6-0.5,3.3-0.9l0,0v-4.2h0.7v-0.6H150.8L150.8,24.8z M142.5,18.5h1.2v8l-4.4-8.5h-3.1v0.6h1v11.2h-1v0.6h2.9v-0.6h-1.3
		V19.1l5.9,11.2h0.7V18.5h1v-0.6h-2.9V18.5L142.5,18.5z M132.4,18.5h1.4v8.6c0,1.8-1,2.8-2.4,2.8c-0.9,0-1.9-0.6-1.9-2.7v-8.7h1.1
		v-0.6h-3.9v0.6h0.9v8.3c0,1.2,0.3,2.2,0.9,2.8c0.6,0.6,1.6,0.9,2.8,0.9h0c0.9,0,1.7-0.3,2.2-0.9c0.5-0.6,0.8-1.4,0.8-2.5v-8.6h0.9
		v-0.6h-2.9V18.5L132.4,18.5z"/>
	<path fill="#1A171B" d="M101.2,15.6h-3.7c-1.5,0-1.8,0.7-2.4,4.2h-0.5v-4.8h9.1l-7.1,14.6h3.8c1.8,0,1.9-0.8,2.8-5h0.4v5.6H94
		L101.2,15.6L101.2,15.6z"/>
	<path fill="#1A171B" d="M35.3,29.7h1.2c2.7,0,4.1-0.8,4.1-3.7c0-2.7-1.6-3.4-4.6-3.4h-0.7V29.7L35.3,29.7z M35.3,22h0.6
		c2.6,0,3.9-1.1,3.9-3.3c0-2.5-1.2-3.1-3.7-3.1h-0.8V22L35.3,22z M36.1,15.1c1.6,0,2.8,0,3.9,0.5c1.2,0.7,1.9,1.8,1.9,3.1
		c0,1.9-1.3,3.1-3.7,3.5c2.9,0.2,4.5,1.7,4.5,3.9c0,1.5-0.7,2.7-2,3.5c-1.1,0.6-2.6,0.7-4.5,0.7h-4.3v-0.5h1.2V15.6h-1.2v-0.5H36.1
		L36.1,15.1z"/>
	<path fill="#E1003B" d="M27.2,24.6c-0.4,2.3-0.8,3.6-1.1,4.2c-0.4,0.6-0.7,0.7-1.3,0.7h-3.3l6.7-14.3H19v5.1h0.8l0-0.1
		c0.4-1.9,0.7-3,1-3.5c0.3-0.5,0.7-0.6,1.3-0.6H25l-6.3,13.8v0.6H28v-5.8h-0.8L27.2,24.6L27.2,24.6z M14.8,28.6
		c-0.6,0.5-1.6,0.8-2.9,0.8h-0.7v-6.7h1.6c1.1,0,1.8,0.2,2.3,0.7c0.5,0.5,0.7,1.3,0.7,2.5C15.7,27.2,15.4,28.1,14.8,28.6 M11.1,15.9
		h1.6c0.7,0,1.3,0.2,1.6,0.7c0.4,0.4,0.6,1.2,0.6,2.2c0,1.2-0.3,1.9-0.7,2.4c-0.5,0.5-1.2,0.7-2.2,0.7h-0.9V15.9L11.1,15.9z
		 M14.9,22.1c1.4-0.5,2.6-1.5,2.6-3.5c0-1-0.4-1.9-1.2-2.6c-0.8-0.6-1.8-1-3.1-1H7.5v0.8h1.2v13.5H7.5v0.8h5c2,0,3.6-0.5,4.6-1.3
		c1-0.8,1.5-1.9,1.5-3.1C18.5,24,17.2,22.6,14.9,22.1"/>
	<path fill="#1A171B" d="M397.3,23.5c0,0-0.1,0-0.2,0v-5h1c1.7,0,2.5,0.7,2.5,2.3C400.6,22.6,399.5,23.5,397.3,23.5 M402.6,29.7
		l-3.5-5.7c2.2-0.1,3.5-1.3,3.5-3.1c0-1-0.4-1.8-1.1-2.3c-0.7-0.5-1.8-0.7-3.1-0.7h-4.2v0.6h1v11.2h-1v0.6h4v-0.6H397v-5.6
		c0.1,0.1,0.2,0.1,0.3,0.3l3.6,6h2.6v-0.6H402.6L402.6,29.7z M392.4,25.7c-0.3,1.8-0.6,3-0.8,3.5c-0.1,0.3-0.2,0.4-0.4,0.4
		c-0.2,0.1-0.4,0.1-0.8,0.1h-2.9v-5.5h0.8c0.6,0,0.8,0,1,0.3c0.2,0.3,0.3,0.9,0.5,1.9l0,0.1h0.7v-5.4h-0.7l0,0.1
		c-0.2,1.1-0.3,1.7-0.5,2c-0.2,0.3-0.4,0.3-1,0.3h-0.9v-5h2.8c0.3,0,0.5,0,0.6,0.1c0.1,0.1,0.2,0.1,0.3,0.4c0.2,0.3,0.5,1.3,0.8,2.9
		l0,0.1h0.7v-4.1h-8.2v0.6h1v11.1h-1v0.6h8.5v-4.7L392.4,25.7L392.4,25.7L392.4,25.7z M380.9,18.5h1.5v8.9l-4.8-9.5h-3.4v0.6h1.1
		v11.1h-1.1v0.6h3.2v-0.6H376v-11l5.9,11.6h1.2V18.5h1v-0.6h-3.2V18.5L380.9,18.5z M370.9,18.5h1.3v7.3c0,1.5,0,2.5-0.5,3.1
		c-0.4,0.6-1.1,0.9-1.9,0.9c-0.8,0-1.4-0.3-1.7-0.8c-0.3-0.5-0.5-1.4-0.5-2.5v-8h1.1v-0.6h-4v0.6h1V26c0,1.5,0.2,2.6,0.7,3.4
		c0.5,0.8,1.5,1.2,2.9,1.2h0c1.1,0,2-0.3,2.6-0.9c0.6-0.6,0.9-1.5,0.9-2.7v-8.4h0.9v-0.6h-2.8V18.5L370.9,18.5z M360.2,18.5h0.9v5
		h-4v-5h1v-0.6h-3.9v0.6h1v11.1h-1v0.6h3.9v-0.6h-1v-5.6h4v5.6h-0.9v0.6h3.9v-0.6h-1V18.5h1v-0.6h-3.9V18.5L360.2,18.5z"/>
	<path fill="#1A171B" d="M349.9,15.5v14.1h1.4v0.6h-5v-0.6h1.4V15.5h-1.2c-1.1,0-1.2,0.6-2,4.4H344V15h9.5v4.8H353
		c-0.8-3.7-0.8-4.4-2-4.4H349.9L349.9,15.5z"/>
	<path fill="#009DDF" d="M321.1,19.9h0.9l0-0.2c0.4-1.9,0.6-2.6,0.8-3.2c0.1-0.3,0.2-0.4,0.4-0.5c0.1-0.1,0.3-0.1,0.6-0.1h1v13.5
		h-1.4v0.9h5.4v-0.9h-1.4V15.9h1c0.3,0,0.4,0,0.6,0.1c0.2,0.1,0.4,0.4,0.5,1.1c0.2,0.6,0.4,1.2,0.6,2.6l0,0.2h0.9V15h-9.9V19.9
		L321.1,19.9z M331.6,15v4.8h0.9l0-0.2c0.4-1.9,0.6-2.6,0.8-3.2c0.1-0.3,0.2-0.4,0.4-0.5c0.1-0.1,0.3-0.1,0.6-0.1h1v13.5h-1.4v0.9
		h5.4v-0.9h-1.4V15.9h1c0.3,0,0.4,0,0.6,0.1c0.2,0.1,0.4,0.4,0.5,1.1c0.2,0.6,0.4,1.2,0.6,2.6l0,0.2h0.9V15H331.6L331.6,15z"/>
	<path fill="#1A171B" d="M468.1,17.9v4h0.6l0-0.1c0.3-1.5,0.5-2.4,0.7-2.9c0.2-0.5,0.4-0.6,0.8-0.6h0.9v11.2h-1.1v0.6h4.2v-0.6h-1.1
		V18.4h0.9c0.4,0,0.6,0.1,0.8,0.6c0.2,0.5,0.4,1.4,0.7,2.8l0,0.1h0.6v-4H468.1L468.1,17.9z M459.5,21.9h0.6l0-0.1
		c0.3-1.5,0.5-2.4,0.7-2.9c0.2-0.5,0.4-0.6,0.8-0.6h0.9v11.2h-1.1v0.6h4.2v-0.6h-1.1V18.4h0.9c0.4,0,0.6,0.1,0.8,0.6
		c0.2,0.5,0.4,1.4,0.7,2.8l0,0.1h0.6v-4.1h-7.8V21.9L459.5,21.9z M453.1,24.8l1.5-5.1l1.4,5.1H453.1L453.1,24.8z M455.7,17.7h-1.1
		l-3.6,12h-0.9v-4.4h-0.6l0,0.1c-0.3,2-0.6,3.3-0.8,3.8c-0.1,0.3-0.2,0.4-0.4,0.5c-0.2,0.1-0.4,0.1-0.7,0.1h-2.2V18.5h1.4v-0.6h-4.3
		v0.6h1v11.2h-1v0.6h7.7h2.8v-0.6h-1.3l1.2-4.2h3.2l1.1,4.2h-1.1v0.6h4v-0.6h-0.9L455.7,17.7L455.7,17.7z M439.2,29.1
		c-0.5,0.4-1.3,0.6-2.4,0.6h-0.8v-5.6h0.5c1.2,0,2.1,0.2,2.7,0.6c0.6,0.4,0.9,1.1,0.9,2.1C439.9,27.9,439.7,28.6,439.2,29.1
		 M435.9,18.5h0.5c1,0,1.7,0.1,2.2,0.5c0.5,0.4,0.7,0.9,0.7,1.9c0,1.7-1,2.5-3,2.5h-0.4V18.5L435.9,18.5z M438.8,23.7
		c1.6-0.4,2.5-1.4,2.5-2.8c0-1.1-0.6-2-1.6-2.6c-0.9-0.5-1.9-0.5-3.2-0.5H433v0.6h1v11.2h-1v0.6h3.6c1.6,0,2.8-0.1,3.7-0.6
		c1.1-0.6,1.7-1.7,1.7-2.9C441.9,25.2,440.8,24,438.8,23.7 M428.5,25.2h1.5v3c0,0.6-0.1,1.1-0.3,1.3c-0.2,0.3-0.7,0.4-1.4,0.4
		c-1,0-1.8-0.5-2.3-1.4c-0.5-0.9-0.8-2.4-0.8-4.3c0-2,0.3-3.6,0.9-4.6c0.6-1,1.4-1.5,2.6-1.5c0.7,0,1,0.2,1.3,0.7
		c0.3,0.5,0.5,1.4,0.9,2.9l0,0.1h0.7v-3.4l0,0c-0.8-0.5-1.8-0.8-2.9-0.8c-1.6,0-3,0.7-4,1.8c-1,1.2-1.6,2.8-1.6,4.8
		c0,1.9,0.5,3.4,1.4,4.5c0.9,1.1,2.2,1.7,3.8,1.7c1.3,0,2.6-0.4,3.4-1.2l0,0v-4.1h0.8v-0.6h-4.2V25.2L428.5,25.2z M416.6,24.8
		l1.5-5.1l1.4,5.1H416.6L416.6,24.8z M419.2,17.7H418l-3.6,12h-0.9v0.6h2.9v-0.6h-1.3l1.2-4.2h3.2l1.1,4.2h-1.1v0.6h4v-0.6h-0.9
		L419.2,17.7L419.2,17.7z"/>
	<path fill="#1A171B" d="M411.4,15.5v14.1h1.4v0.6h-5v-0.6h1.4V15.5H408c-1.1,0-1.2,0.6-2,4.4h-0.5V15h9.5v4.8h-0.5
		c-0.8-3.7-0.8-4.4-2-4.4H411.4L411.4,15.5z"/>
	<g>
		<path fill="#1A171B" d="M678.1,23.5c0,0-0.1,0-0.2,0v-4.8h1c1.7,0,2.4,0.6,2.4,2.2C681.3,22.7,680.3,23.5,678.1,23.5 M683.2,29.4
			l-3.4-5.5c2.1-0.1,3.3-1.3,3.3-2.9c0-1-0.3-1.7-1-2.2c-0.7-0.5-1.7-0.7-3-0.7h-4v0.6h0.9v10.7l-0.9,0V30h3.8v-0.6h-1v-5.4
			c0.1,0.1,0.2,0.1,0.2,0.2l3.4,5.7h2.5v-0.6H683.2L683.2,29.4z M673.4,25.6c-0.3,1.8-0.6,2.9-0.8,3.3c-0.1,0.3-0.2,0.4-0.3,0.4
			c-0.1,0.1-0.4,0.1-0.7,0.1h-2.7v-5.2h0.8c0.5,0,0.7,0,0.9,0.3c0.2,0.3,0.3,0.8,0.5,1.9l0,0.1h0.6v-5.2h-0.6l0,0.1
			c-0.2,1.1-0.3,1.6-0.5,1.9c-0.2,0.3-0.4,0.3-0.9,0.3h-0.8v-4.8h2.7c0.3,0,0.5,0,0.6,0.1c0.1,0.1,0.2,0.1,0.3,0.4
			c0.1,0.3,0.4,1.3,0.8,2.8l0,0.1h0.7v-3.9h-7.8v0.6h1v10.7h-1V30h8.1v-4.5L673.4,25.6L673.4,25.6L673.4,25.6z M662.5,28.2
			c-0.6,0.9-1.5,1.3-2.8,1.3h-0.5V18.8h0.6c1.3,0,2.2,0.4,2.8,1.3c0.6,0.9,0.9,2.2,0.9,4.1C663.4,26,663.1,27.3,662.5,28.2
			 M659.7,18.2h-3.4v0.6h1v10.7h-1V30h3.3c1.9,0,3.3-0.5,4.2-1.5c0.9-1,1.4-2.5,1.4-4.5c0-2-0.5-3.4-1.4-4.4
			C663,18.7,661.6,18.2,659.7,18.2 M640,24.8l1.4-4.8l1.3,4.8H640L640,24.8z M652.7,18.8h1.5v8.5l-4.6-9.1h-3.2v0.6h1v10.7h-1v0
			h-0.4L642.5,18h-1.1L638,29.4h-0.4v-4.2h-0.6l0,0.1c-0.3,1.9-0.6,3.2-0.8,3.6c-0.1,0.3-0.2,0.4-0.3,0.4c-0.1,0.1-0.4,0.1-0.7,0.1
			h-2.1V18.8h1.3v-0.6h-4.1v0.6h0.9v10.7h-0.9V30h6.8h2.8v-0.6h-1.3l1.2-4h3.1l1.1,4h-1V30h3.4h3v-0.6H648V18.9l5.6,11.1h1.2V18.8h1
			v-0.6h-3.1V18.8L652.7,18.8z M624.4,23.5c0,0-0.1,0-0.2,0v-4.8h1c1.7,0,2.4,0.6,2.4,2.2C627.6,22.7,626.6,23.5,624.4,23.5
			 M626.1,24c2.1-0.1,3.3-1.3,3.3-2.9c0-1-0.3-1.7-1-2.2c-0.7-0.5-1.7-0.7-3-0.7h-4v0.6h0.9v10.7l-0.9,0V30h3.8v-0.6h-1v-5.4
			c0.1,0.1,0.2,0.1,0.2,0.2l3.4,5.7h2.5v-0.6h-0.8L626.1,24L626.1,24z M619.8,25.6c-0.3,1.8-0.6,2.9-0.8,3.3
			c-0.1,0.3-0.2,0.4-0.3,0.4c-0.1,0.1-0.4,0.1-0.7,0.1h-2.7v-5.2h0.8c0.5,0,0.7,0,0.9,0.3c0.2,0.3,0.3,0.8,0.5,1.9l0,0.1h0.6v-5.2
			h-0.6l0,0.1c-0.2,1.1-0.3,1.6-0.5,1.9c-0.2,0.3-0.4,0.3-0.9,0.3h-0.8v-4.8h2.5c0,0,0.1,0,0.1,0c0.3,0,0.5,0,0.6,0.1
			c0.1,0.1,0.2,0.1,0.3,0.4c0.2,0.3,0.4,1.3,0.8,2.8l0,0.1h0.7v-3.9h-7.8v0.6h1v10.7h-1V30h8.1v-4.5L619.8,25.6L619.8,25.6
			L619.8,25.6z M609.2,28.9c-0.5,0.4-1.3,0.6-2.3,0.6h-0.8v-5.3h0.4c1.1,0,2,0.1,2.6,0.5c0.6,0.4,0.8,1,0.9,2
			C609.9,27.8,609.7,28.5,609.2,28.9 M606.1,18.8h0.5c1,0,1.7,0.1,2.1,0.5c0.4,0.3,0.7,0.9,0.7,1.8c0,1.6-0.9,2.4-2.9,2.4h-0.4V18.8
			L606.1,18.8z M608.9,23.7c1.5-0.4,2.4-1.3,2.4-2.6c0-1-0.6-1.9-1.5-2.5c-0.8-0.4-1.8-0.4-3-0.4h-3.3v0.6h0.9v10.7l-0.9,0V30h3.4
			c1.5,0,2.6-0.1,3.5-0.6c1-0.6,1.6-1.6,1.6-2.8C611.8,25.1,610.8,24,608.9,23.7"/>
		<path fill="#1A171B" d="M597,29.9c2.4,0,3.3-2.3,3.3-7.2c0-4.8-0.9-7.2-3.3-7.2c-2.3,0-3.3,2.3-3.3,7.2
			C593.7,27.6,594.7,29.9,597,29.9 M597,15.2c3.2,0,5.6,3,5.6,7.6c0,4.5-2.3,7.6-5.6,7.6c-3.3,0-5.6-3.1-5.6-7.6
			C591.4,18.2,593.7,15.2,597,15.2"/>
		<path fill="#009DDF" d="M523.4,29.8c-1.1,0-1.9-0.5-2.4-1.7c-0.5-1.2-0.8-2.9-0.8-5.3c0-2.4,0.3-4.2,0.8-5.3
			c0.5-1.1,1.3-1.7,2.4-1.7c1.1,0,1.9,0.5,2.4,1.7c0.5,1.2,0.8,2.9,0.8,5.3c0,2.4-0.2,4.2-0.7,5.3C525.3,29.3,524.5,29.8,523.4,29.8
			 M527.5,17.1c-1-1.4-2.5-2.1-4.1-2.1c-1.7,0-3.1,0.8-4.1,2.1c-1,1.4-1.6,3.3-1.6,5.6c0,2.3,0.6,4.2,1.6,5.6c1,1.4,2.5,2.2,4.2,2.2
			h0c1.7,0,3.1-0.8,4.1-2.2c1-1.4,1.6-3.3,1.6-5.6C529.1,20.4,528.5,18.5,527.5,17.1"/>
		<path fill="#1A171B" d="M550,25.5L550,25.5c-0.5,1.8-0.8,2.8-1.1,3.3c-0.3,0.5-0.6,0.6-1.1,0.6h-2.5v-5.3h1.1
			c0.4,0,0.6,0.1,0.8,0.4c0.2,0.3,0.4,0.9,0.5,1.8l0,0.1h0.5v-5.2h-0.5l0,0.1c-0.1,0.9-0.3,1.5-0.5,1.8c-0.2,0.3-0.4,0.4-0.8,0.4
			h-1.1v-4.9l2.9,0c0.4,0,0.5,0,0.8,0.5c0.2,0.4,0.5,1.3,0.9,2.9l0,0.1h0.5v-3.9h-7.8v0.6h0.9v10.8h-0.9V30h7.9v-4.5H550L550,25.5z"
			/>
		<path fill="#1A171B" d="M554.4,18.7h1.3c1.6,0,2.1,1.2,2.1,2.4c0,1.6-0.8,2.6-2.6,2.6h-0.8V18.7L554.4,18.7z M559.9,29.5l-3.4-5.4
			c2.1-0.2,3.2-1.4,3.2-3c0-0.8-0.2-1.5-0.8-2c-0.6-0.5-1.4-0.9-2.7-0.9h-4.4v0.6h0.9v10.8h-0.9V30h3.8v-0.6h-1.1v-5.3l3.7,5.8h2.5
			v-0.6H559.9L559.9,29.5z"/>
		<polygon fill="#1A171B" points="567,18.2 567,18.7 568.2,18.7 568.2,26.4 563.9,18.2 560.9,18.2 560.9,18.7 561.9,18.7 
			561.9,29.5 560.9,29.5 560.9,30 563.7,30 563.7,29.5 562.5,29.5 562.5,19.3 568.1,30 568.8,30 568.8,18.7 569.7,18.7 569.7,18.2 
			567,18.2 		"/>
		<path fill="#1A171B" d="M578,25.5L578,25.5c-0.5,1.8-0.8,2.8-1.1,3.3c-0.3,0.5-0.6,0.6-1.1,0.6h-2.5v-5.3h1.1
			c0.4,0,0.6,0.1,0.8,0.4c0.2,0.3,0.4,0.9,0.5,1.8l0,0.1h0.5v-5.2h-0.5l0,0.1c-0.1,0.9-0.3,1.5-0.5,1.8c-0.2,0.3-0.4,0.4-0.8,0.4
			h-1.1v-4.9h2.9c0.4,0,0.5,0,0.8,0.5c0.2,0.4,0.5,1.3,0.9,2.9l0,0.1h0.5v-3.9h-7.8v0.6h0.9v10.8h-0.9V30h7.9v-4.5H578L578,25.5z"/>
		<path fill="#1A171B" d="M585.7,21.1c0,1.6-0.8,2.6-2.6,2.6h-0.8v-4.9h1.3C585.2,18.7,585.7,19.9,585.7,21.1 M587.8,29.5l-3.4-5.4
			c2.1-0.2,3.2-1.4,3.2-3c0-0.8-0.2-1.5-0.8-2c-0.6-0.5-1.4-0.9-2.7-0.9h-4.4v0.6h0.9v10.8h-0.9V30h3.8v-0.6h-1.1v-5.3l3.7,5.8h2.5
			v-0.6H587.8L587.8,29.5z"/>
		<path fill="#1A171B" d="M534.5,29.5h1.1c2.6,0,3.9-0.8,3.9-3.6c0-2.6-1.5-3.3-4.4-3.3h-0.7V29.5L534.5,29.5z M534.5,22.1h0.6
			c2.5,0,3.7-1,3.7-3.1c0-2.4-1.1-3-3.6-3h-0.8V22.1L534.5,22.1z M535.4,15.4c1.5,0,2.7,0,3.8,0.5c1.2,0.6,1.9,1.7,1.9,3
			c0,1.8-1.3,3-3.6,3.3c2.8,0.2,4.3,1.7,4.3,3.7c0,1.4-0.7,2.6-1.9,3.4c-1,0.6-2.5,0.7-4.3,0.7h-4.1v-0.5h1.2V15.9h-1.2v-0.5H535.4
			L535.4,15.4z"/>
		<path fill="#009DDF" d="M513.5,28.5c-0.6,0.5-1.5,0.8-2.8,0.8H510v-6.5h1.5c1.1,0,1.8,0.2,2.2,0.7c0.5,0.5,0.7,1.2,0.7,2.4
			C514.4,27.1,514.1,28,513.5,28.5 M510,16.2h1.6c0.7,0,1.2,0.2,1.6,0.6c0.4,0.4,0.6,1.1,0.6,2.1c0,1.1-0.3,1.9-0.7,2.3
			c-0.5,0.5-1.1,0.7-2.1,0.7H510V16.2L510,16.2z M513.7,22.2c1.3-0.4,2.5-1.5,2.5-3.4c0-1-0.4-1.9-1.1-2.5c-0.7-0.6-1.8-1-3-1h-5.6
			v0.8h1.1v13h-1.1V30h4.8c2,0,3.4-0.4,4.4-1.2c1-0.8,1.4-1.8,1.4-3C517.1,24,515.9,22.7,513.7,22.2"/>
		<path fill="#1A171B" d="M640.6,17.1c0.5,0,0.8-0.4,0.8-0.9c0-0.5-0.4-0.9-0.8-0.9c-0.5,0-0.8,0.4-0.8,0.9
			C639.7,16.7,640.1,17.1,640.6,17.1"/>
		<path fill="#1A171B" d="M643.2,17.1c0.5,0,0.8-0.4,0.8-0.9c0-0.5-0.4-0.9-0.8-0.9c-0.5,0-0.8,0.4-0.8,0.9
			C642.4,16.7,642.8,17.1,643.2,17.1"/>
	</g>
</g>
<g>
	<g>
		<path fill="#1A171B" d="M223.8,18.6h-1.1l-3.5,11h-0.9v0.6h2.8v-0.6h-1.3l1.2-3.9h3.2l1.1,3.9h-1.1v0.6h3.9v-0.6h-0.9L223.8,18.6z
			 M224.1,25.1h-2.8l1.4-4.7L224.1,25.1z"/>
		<path fill="#1A171B" d="M234.1,25.5h1.5v2.7c0,1-0.3,1.6-1.7,1.6c-2,0-3-1.7-3-5.3c0-3.7,1.1-5.6,3.4-5.6c1.3,0,1.4,0.6,2.1,3.1
			l0.1,0.3h0.7v-3.1l0,0c-0.8-0.5-1.8-0.8-2.8-0.8c-3.2,0-5.4,2.5-5.4,6.1c0,3.5,2,5.8,5.1,5.8c1.3,0,2.5-0.4,3.3-1.1l0,0v-3.8h0.8
			v-0.6h-4.1V25.5z"/>
		<path fill="#1A171B" d="M246.5,24.1c1.6-0.4,2.4-1.2,2.4-2.5c0-1-0.6-1.9-1.6-2.4c-0.9-0.4-1.9-0.4-3.1-0.4h-3.4v0.6h1v10.3h-1
			v0.6h3.5c1.6,0,2.7-0.1,3.6-0.6c1.1-0.6,1.6-1.5,1.6-2.7C249.5,25.4,248.4,24.4,246.5,24.1z M244.2,19.3c2.1,0,2.8,0.6,2.8,2.2
			c0,1.6-1,2.3-2.9,2.3h-0.4v-4.5H244.2z M244.5,29.6h-0.8v-5.1h0.4c2.5,0,3.5,0.7,3.5,2.5C247.6,28.9,246.8,29.6,244.5,29.6z"/>
		<path fill="#1A171B" d="M259,25.6c-0.3,1.8-0.6,3-0.8,3.5c-0.2,0.5-0.4,0.5-1.1,0.5H255V19.3h1.4v-0.6h-4.2v0.6h1v10.3h-1v0.6h7.5
			v-4.6L259,25.6L259,25.6z"/>
		<path fill="#1A171B" d="M266.9,18.6h-1.1l-3.5,11h-0.9v0.6h2.8v-0.6h-1.3l1.2-3.9h3.2l1.1,3.9h-1.1v0.6h3.9v-0.6h-0.9L266.9,18.6z
			 M267.1,25.1h-2.8l1.4-4.7L267.1,25.1z"/>
		<path fill="#1A171B" d="M272.4,18.7v3.7h0.6l0.1-0.6c0.5-2.3,0.6-2.6,1.3-2.6h0.9v10.3h-1.1v0.6h4.1v-0.6h-1.1V19.3h0.9
			c0.8,0,0.8,0.3,1.3,2.6l0.1,0.6h0.6v-3.7H272.4z"/>
	</g>
	<g>
		<path fill="#1A171B" d="M214.7,15.6v14.1h1.5v0.6h-5.1v-0.6h1.5V15.6h-1.2c-1.2,0-1.2,0.6-2,4.5h-0.5v-4.9h9.8V20H218
			c-0.8-3.8-0.8-4.5-2-4.5H214.7z"/>
	</g>
	<g>
		<path fill="#1A171B" d="M288.1,15.6v14.1h1.5v0.6h-5.1v-0.6h1.5V15.6h-1.2c-1.2,0-1.2,0.6-2,4.5h-0.5v-4.9h9.8V20h-0.6
			c-0.8-3.8-0.8-4.5-2-4.5H288.1z"/>
	</g>
	<g>
		<path fill="#1A171B" d="M229.4,16.1c-0.1,0.5-0.2,0.8-0.2,0.9c0,0.1-0.1,0.1-0.3,0.1h-0.5v-2.7h0.4v-0.2h-1.1v0.2h0.3v2.7h-0.3
			v0.2h2v-1.3L229.4,16.1L229.4,16.1z"/>
		<path fill="#1A171B" d="M232.5,14.3h-0.3l-0.9,2.9H231v0.2h0.8v-0.2h-0.3l0.3-1h0.8l0.3,1h-0.3v0.2h1.1v-0.2h-0.2L232.5,14.3z
			 M232.5,16h-0.7l0.3-1.1L232.5,16z"/>
		<polygon fill="#1A171B" points="236.8,14.5 237.2,14.5 237.2,16.6 236,14.3 235.1,14.3 235.1,14.5 235.4,14.5 235.4,17.2 
			235.1,17.2 235.1,17.4 235.9,17.4 235.9,17.2 235.6,17.2 235.6,14.6 237.1,17.4 237.4,17.4 237.4,14.5 237.7,14.5 237.7,14.3 
			236.8,14.3 		"/>
		<path fill="#1A171B" d="M240.4,16.1h0.4v0.7c0,0.3-0.1,0.4-0.4,0.4c-0.5,0-0.8-0.4-0.8-1.4c0-1,0.3-1.4,0.9-1.4
			c0.3,0,0.3,0.1,0.5,0.8l0,0.1h0.2v-0.9l0,0c-0.2-0.1-0.5-0.2-0.7-0.2c-0.9,0-1.4,0.7-1.4,1.6c0,0.9,0.5,1.5,1.4,1.5
			c0.3,0,0.7-0.1,0.9-0.3l0,0v-1h0.2v-0.2h-1.1V16.1z"/>
		<path fill="#1A171B" d="M245.2,16.2c-0.1,0.4-0.2,0.7-0.2,0.8c0,0.1-0.1,0.1-0.3,0.1H244v-1.3h0.2c0.2,0,0.3,0,0.4,0.5l0,0h0.2
			v-1.4h-0.2l0,0c-0.1,0.5-0.1,0.6-0.4,0.6H244v-1.2h0.7c0.2,0,0.2,0,0.2,0.1c0,0.1,0.1,0.3,0.2,0.7l0,0h0.2v-1h-2.2v0.2h0.3v2.6
			h-0.3v0.2h2.2v-1.2L245.2,16.2L245.2,16.2z"/>
		<polygon fill="#1A171B" points="248.7,14.5 249.1,14.5 249.1,16.6 247.9,14.3 247.9,14.3 247,14.3 247,14.5 247.2,14.5 
			247.2,17.2 247,17.2 247,17.4 247.8,17.4 247.8,17.2 247.4,17.2 247.4,14.6 248.9,17.3 248.9,17.4 249.3,17.4 249.3,14.5 
			249.6,14.5 249.6,14.3 248.7,14.3 		"/>
		<path fill="#1A171B" d="M251.1,15.3h0.2l0-0.2c0.1-0.6,0.2-0.7,0.3-0.7h0.2v2.7h-0.3v0.2h1.1v-0.2h-0.3v-2.7h0.2
			c0.2,0,0.2,0.1,0.3,0.7l0,0.2h0.2v-1h-2.1V15.3z"/>
		<polygon fill="#1A171B" points="256.3,14.5 256.6,14.5 256.6,15.7 255.6,15.7 255.6,14.5 255.8,14.5 255.8,14.3 254.8,14.3 
			254.8,14.5 255,14.5 255,17.2 254.8,17.2 254.8,17.4 255.8,17.4 255.8,17.2 255.6,17.2 255.6,15.9 256.6,15.9 256.6,17.2 
			256.3,17.2 256.3,17.4 257.4,17.4 257.4,17.2 257.1,17.2 257.1,14.5 257.4,14.5 257.4,14.3 256.3,14.3 		"/>
		<path fill="#1A171B" d="M260.2,14.3h-0.3l-0.9,2.9h-0.2v0.2h0.8v-0.2h-0.3l0.3-1h0.8l0.3,1h-0.3v0.2h1.1v-0.2h-0.2L260.2,14.3z
			 M260.2,16h-0.7l0.3-1.1L260.2,16z"/>
		<path fill="#1A171B" d="M264.6,16.1c-0.1,0.5-0.2,0.8-0.2,0.9c0,0.1-0.1,0.1-0.3,0.1h-0.5v-2.7h0.4v-0.2h-1.1v0.2h0.3v2.7h-0.3
			v0.2h2v-1.3L264.6,16.1L264.6,16.1z"/>
		<path fill="#1A171B" d="M268.5,16.2c-0.1,0.4-0.2,0.7-0.2,0.8c0,0.1-0.1,0.1-0.3,0.1h-0.7v-1.3h0.2c0.2,0,0.3,0,0.4,0.5l0,0h0.2
			v-1.4h-0.2l0,0c-0.1,0.5-0.1,0.6-0.4,0.6h-0.2v-1.2h0.7c0.2,0,0.2,0,0.2,0.1c0,0.1,0.1,0.3,0.2,0.7l0,0h0.2v-1h-2.2v0.2h0.3v2.6
			h-0.3v0.2h2.2v-1.2L268.5,16.2L268.5,16.2z"/>
		<path fill="#1A171B" d="M272.6,17.2l-0.9-1.3c0.5,0,0.9-0.3,0.9-0.8c0-0.5-0.3-0.7-1.1-0.7h-1.1v0.2h0.3v2.7h-0.3v0.2h1.1v-0.2
			h-0.3v-1.3c0,0,0,0,0.1,0l0.9,1.4l0,0h0.7v-0.2H272.6z M271.1,14.5h0.2c0.4,0,0.6,0.2,0.6,0.5c0,0.4-0.3,0.6-0.8,0.6c0,0,0,0,0,0
			c0,0,0,0,0,0V14.5z"/>
	</g>
	<path fill="#E1003B" d="M205.2,24.3c-0.5,2.4-0.8,3.7-1.2,4.3c-0.4,0.6-0.7,0.7-1.3,0.7h-3.4l6.9-14.2h-9.5v5.3h0.8l0-0.2
		c0.4-2,0.7-3.1,1-3.6c0.4-0.5,0.7-0.6,1.4-0.6h3l-6.6,13.7v0.6h9.6v-6h-0.8L205.2,24.3z"/>
	<path fill="#E1003B" d="M192.6,22.1c1.4-0.5,2.7-1.5,2.7-3.5c0-1-0.4-1.9-1.2-2.6c-0.8-0.6-1.9-1-3.2-1h-6V16h1.2v13.4h-1.2v0.9
		h5.1c2.1,0,3.7-0.5,4.7-1.3c1-0.8,1.5-1.9,1.5-3.1C196.3,24,194.9,22.6,192.6,22.1 M192.5,28.5c-0.6,0.5-1.6,0.8-3,0.8h-0.8v-6.9
		h1.6c1.1,0,1.9,0.6,2.4,1c0.5,0.5,0.7,1.2,0.7,2.4C193.4,27.2,193.1,28,192.5,28.5 M188.6,16l1.7,0c0.8,0,1.3,0.2,1.7,0.7
		c0.4,0.4,0.6,1.1,0.6,2.2c0,1.1-0.3,1.9-0.8,2.3c-0.5,0.5-1.2,0.4-2.2,0.4h-1V16z"/>
</g>
</svg>
